# Blender 3.5.1
# www.blender.org
mtllib weapon1.mtl
o Cube
v -0.086933 -0.058820 0.116983
v -0.086933 0.058820 0.116983
v -0.269088 -0.116983 -0.116983
v -0.269088 0.116983 -0.116983
v 0.086933 -0.058820 0.116983
v 0.086933 0.058820 0.116983
v 0.269088 -0.116983 -0.116983
v 0.269088 0.116983 -0.116983
v -0.269088 -0.116983 0.116983
v -0.269088 0.116983 0.116983
v 0.269088 0.116983 0.116983
v 0.269088 -0.116983 0.116983
v -0.086933 -0.058820 0.754601
v -0.086933 0.058820 0.754601
v 0.086933 0.058820 0.754601
v 0.086933 -0.058820 0.754601
v -0.086933 -0.058820 0.817114
v -0.086933 0.058820 0.817114
v 0.086933 0.058820 0.817114
v 0.086933 -0.058820 0.817114
v -0.360634 -0.058820 0.882010
v -0.360634 0.058820 0.882010
v 0.360634 0.058820 0.882010
v 0.360634 -0.058820 0.882010
v -0.120766 -0.058820 1.206864
v -0.120766 0.058820 1.206864
v 0.120766 0.058820 1.206864
v 0.120766 -0.058820 1.206864
vn -1.0000 -0.0000 -0.0000
vn -0.0000 -0.0000 -1.0000
vn 1.0000 -0.0000 -0.0000
vn -0.0000 1.0000 -0.0000
vn -0.0000 -1.0000 -0.0000
vn -0.0000 -0.0000 1.0000
vn 0.2307 -0.0000 -0.9730
vn -0.2307 -0.0000 -0.9730
vn -0.8045 -0.0000 0.5940
vn 0.8045 -0.0000 0.5940
vt 0.103336 0.738927
vt 0.784580 0.595591
vt 0.997084 0.408669
vt 0.297323 0.629045
vt 0.036139 0.738927
vt 0.929887 0.408669
vt 0.142391 0.634878
vt 0.924055 0.310327
vt 0.924055 0.316160
vt 0.142391 0.768521
vt 0.790412 0.310327
vt 0.924055 0.936814
vt 0.103336 0.838240
vt 0.997084 0.402837
vt 0.691070 0.629045
vt 0.390832 0.595591
vt 0.036139 0.838240
vt 0.929887 0.402837
vt 0.924055 0.002916
vt 0.415510 0.634878
vt 0.924055 0.623571
vt 0.790412 0.002916
vt 0.415510 0.768521
vt 0.924055 0.629403
vt 0.276034 0.634878
vt 0.790412 0.316160
vt 0.136559 0.634878
vt 0.276034 0.768521
vt 0.790412 0.936814
vt 0.002916 0.634878
vt 0.281867 0.768521
vt 0.790412 0.629403
vt 0.002916 0.942289
vt 0.281867 0.634878
vt 0.790412 0.623571
vt 0.136559 0.942289
vt 0.661892 0.252664
vt 0.997084 0.772882
vt 0.929887 0.772882
vt 0.174635 0.286119
vt 0.268144 0.252664
vt 0.929887 0.038624
vt 0.568383 0.286119
vt 0.997084 0.038624
vt 0.997084 0.808590
vt 0.649863 0.219043
vt 0.707626 0.634878
vt 0.929887 0.808590
vt 0.162606 0.252498
vt 0.640429 0.634878
vt 0.256115 0.219043
vt 0.929887 0.002916
vt 0.567400 0.791218
vt 0.997084 0.002916
vt 0.634597 0.791218
vt 0.556354 0.252498
vt 0.784580 0.131476
vt 0.707626 0.791218
vt 0.488539 0.634878
vt 0.640429 0.791218
vt 0.421342 0.634878
vt 0.002916 0.270260
vt 0.567400 0.634878
vt 0.390832 0.131476
vt 0.494371 0.820437
vt 0.634597 0.634878
vt 0.396664 0.270260
vt 0.561568 0.820437
vt 0.593066 0.002916
vt 0.780655 0.634878
vt 0.488539 0.820437
vt 0.713458 0.634878
vt 0.421342 0.820437
vt 0.069416 0.049391
vt 0.713458 0.772843
vt 0.199318 0.002916
vt 0.494371 0.634878
vt 0.463164 0.049391
vt 0.780655 0.772843
vt 0.561568 0.634878
s 0
usemtl Material.001
f 9/25/1 10/28/1 4/10/1 3/7/1
f 3/8/2 4/11/2 8/22/2 7/19/2
f 7/20/3 8/23/3 11/31/3 12/34/3
f 6/16/4 2/4/4 14/40/4 15/41/4
f 3/9/5 7/21/5 12/35/5 9/26/5
f 8/24/4 4/12/4 10/29/4 11/32/4
f 1/1/6 2/5/6 10/30/6 9/27/6
f 6/17/6 5/13/6 12/36/6 11/33/6
f 5/13/6 1/1/6 9/27/6 12/36/6
f 2/5/6 6/17/6 11/33/6 10/30/6
f 13/37/5 16/43/5 20/56/5 17/46/5
f 5/14/3 6/18/3 15/42/3 16/44/3
f 1/2/5 5/15/5 16/43/5 13/37/5
f 2/6/1 1/3/1 13/38/1 14/39/1
f 19/51/4 18/49/4 22/62/4 23/64/4
f 14/39/1 13/38/1 17/45/1 18/48/1
f 15/41/4 14/40/4 18/49/4 19/51/4
f 16/44/3 15/42/3 19/52/3 20/54/3
f 21/57/5 24/67/5 28/78/5 25/69/5
f 20/55/7 19/53/7 23/63/7 24/66/7
f 17/46/5 20/56/5 24/67/5 21/57/5
f 18/50/8 17/47/8 21/58/8 22/60/8
f 28/79/6 27/75/6 26/72/6 25/70/6
f 22/61/9 21/59/9 25/71/9 26/73/9
f 23/64/4 22/62/4 26/74/4 27/76/4
f 24/68/10 23/65/10 27/77/10 28/80/10
