# Blender v3.4.1 OBJ File: ''
# www.blender.org
mtllib tile4.mtl
o Plane
v -16.000000 0.000000 16.000000
v 16.000000 0.000000 16.000000
v -16.000000 0.000000 -16.000000
v 16.000000 0.000000 -16.000000
v 0.064738 -0.955205 -14.792500
v 2.516899 -0.955205 -14.564743
v 4.874794 -0.955205 -13.890217
v 7.047848 -0.955205 -12.794844
v 8.952585 -0.955205 -11.320724
v 10.515740 -0.955205 -9.524511
v 11.677235 -0.955205 -7.475219
v 12.392524 -0.955205 -5.251604
v 12.634039 -0.955205 -2.939126
v 12.392524 -0.955205 -0.626647
v 11.677235 -0.955205 1.596968
v 10.515740 -0.955205 3.646255
v 8.952585 -0.955205 5.442473
v 7.047848 -0.955205 6.916593
v 4.874794 -0.955205 8.011965
v 2.516899 -0.955205 8.686489
v 0.064738 -0.955205 8.914248
v -2.387422 -0.955205 8.686489
v -4.745317 -0.955205 8.011965
v -6.918372 -0.955205 6.916593
v -8.823109 -0.955205 5.442473
v -10.386264 -0.955205 3.646255
v -11.547758 -0.955205 1.596968
v -12.263047 -0.955205 -0.626647
v -12.504562 -0.955205 -2.939126
v -12.263047 -0.955205 -5.251604
v -11.547758 -0.955205 -7.475219
v -10.386264 -0.955205 -9.524511
v -8.823109 -0.955205 -11.320724
v -6.918372 -0.955205 -12.794844
v -4.745317 -0.955205 -13.890217
v -2.387422 -0.955205 -14.564743
v 0.064738 32.285011 -2.939126
vt 0.756012 0.015703
vt 0.756012 0.756330
vt 0.015703 0.756330
vt 0.015703 0.015703
vt 0.250000 0.490000
vt 0.250000 0.250000
vt 0.296822 0.485388
vt 0.341844 0.471731
vt 0.383336 0.449553
vt 0.419706 0.419706
vt 0.449553 0.383337
vt 0.471731 0.341844
vt 0.485388 0.296822
vt 0.490000 0.250000
vt 0.485388 0.203178
vt 0.471731 0.158156
vt 0.449553 0.116663
vt 0.419706 0.080294
vt 0.383336 0.050447
vt 0.341844 0.028269
vt 0.296822 0.014612
vt 0.250000 0.010000
vt 0.203178 0.014612
vt 0.158156 0.028269
vt 0.116664 0.050447
vt 0.080294 0.080294
vt 0.050447 0.116663
vt 0.028269 0.158156
vt 0.014612 0.203178
vt 0.010000 0.250000
vt 0.014612 0.296822
vt 0.028269 0.341844
vt 0.050447 0.383337
vt 0.080294 0.419706
vt 0.116664 0.449553
vt 0.158156 0.471731
vt 0.750000 0.490000
vt 0.796822 0.485388
vt 0.841844 0.471731
vt 0.883336 0.449553
vt 0.919706 0.419706
vt 0.949553 0.383337
vt 0.971731 0.341844
vt 0.985389 0.296822
vt 0.990000 0.250000
vt 0.985389 0.203178
vt 0.971731 0.158156
vt 0.949553 0.116663
vt 0.919706 0.080294
vt 0.883336 0.050447
vt 0.841844 0.028269
vt 0.796822 0.014612
vt 0.750000 0.010000
vt 0.703178 0.014612
vt 0.658156 0.028269
vt 0.616664 0.050447
vt 0.580294 0.080294
vt 0.550447 0.116663
vt 0.528269 0.158156
vt 0.514611 0.203178
vt 0.510000 0.250000
vt 0.514611 0.296822
vt 0.528269 0.341844
vt 0.550447 0.383337
vt 0.580294 0.419706
vt 0.616664 0.449553
vt 0.658156 0.471731
vt 0.703178 0.485388
vt 0.203178 0.485388
vn 0.0000 1.0000 0.0000
vn 0.0872 0.3346 -0.9383
vn 0.2591 0.3358 -0.9056
vn 0.4236 0.3382 -0.8404
vn 0.5753 0.3413 -0.7434
vn 0.7081 0.3447 -0.6162
vn 0.8156 0.3480 -0.4623
vn 0.8915 0.3506 -0.2868
vn 0.9309 0.3520 -0.0972
vn 0.9309 0.3520 0.0972
vn 0.8915 0.3506 0.2868
vn 0.8156 0.3480 0.4623
vn 0.7081 0.3447 0.6162
vn 0.5753 0.3413 0.7434
vn 0.4236 0.3382 0.8404
vn 0.2591 0.3358 0.9056
vn 0.0872 0.3346 0.9383
vn -0.0872 0.3346 0.9383
vn -0.2591 0.3358 0.9056
vn -0.4236 0.3382 0.8404
vn -0.5753 0.3413 0.7434
vn -0.7081 0.3447 0.6162
vn -0.8156 0.3480 0.4623
vn -0.8915 0.3506 0.2868
vn -0.9309 0.3520 0.0972
vn -0.9309 0.3520 -0.0972
vn -0.8915 0.3506 -0.2868
vn -0.8156 0.3480 -0.4623
vn -0.7081 0.3447 -0.6162
vn -0.5753 0.3413 -0.7434
vn -0.4236 0.3382 -0.8404
vn 0.0000 -1.0000 0.0000
vn -0.2591 0.3358 -0.9056
vn -0.0872 0.3346 -0.9383
usemtl Material.001
s off
f 1/1/1 2/2/1 4/3/1 3/4/1
f 5/5/2 37/6/2 6/7/2
f 6/7/3 37/6/3 7/8/3
f 7/8/4 37/6/4 8/9/4
f 8/9/5 37/6/5 9/10/5
f 9/10/6 37/6/6 10/11/6
f 10/11/7 37/6/7 11/12/7
f 11/12/8 37/6/8 12/13/8
f 12/13/9 37/6/9 13/14/9
f 13/14/10 37/6/10 14/15/10
f 14/15/11 37/6/11 15/16/11
f 15/16/12 37/6/12 16/17/12
f 16/17/13 37/6/13 17/18/13
f 17/18/14 37/6/14 18/19/14
f 18/19/15 37/6/15 19/20/15
f 19/20/16 37/6/16 20/21/16
f 20/21/17 37/6/17 21/22/17
f 21/22/18 37/6/18 22/23/18
f 22/23/19 37/6/19 23/24/19
f 23/24/20 37/6/20 24/25/20
f 24/25/21 37/6/21 25/26/21
f 25/26/22 37/6/22 26/27/22
f 26/27/23 37/6/23 27/28/23
f 27/28/24 37/6/24 28/29/24
f 28/29/25 37/6/25 29/30/25
f 29/30/26 37/6/26 30/31/26
f 30/31/27 37/6/27 31/32/27
f 31/32/28 37/6/28 32/33/28
f 32/33/29 37/6/29 33/34/29
f 33/34/30 37/6/30 34/35/30
f 34/35/31 37/6/31 35/36/31
f 5/37/32 6/38/32 7/39/32 8/40/32 9/41/32 10/42/32 11/43/32 12/44/32 13/45/32 14/46/32 15/47/32 16/48/32 17/49/32 18/50/32 19/51/32 20/52/32 21/53/32 22/54/32 23/55/32 24/56/32 25/57/32 26/58/32 27/59/32 28/60/32 29/61/32 30/62/32 31/63/32 32/64/32 33/65/32 34/66/32 35/67/32 36/68/32
f 35/36/33 37/6/33 36/69/33
f 36/69/34 37/6/34 5/5/34
